<?xml version="1.0" standalone="no"?>
<!DOCTYPE svg PUBLIC "-//W3C//DTD SVG 20010904//EN"
 "http://www.w3.org/TR/2001/REC-SVG-20010904/DTD/svg10.dtd">
<svg version="1.0" xmlns="http://www.w3.org/2000/svg"
 width="597.000000pt" height="597.000000pt" viewBox="0 0 597.000000 597.000000"
 preserveAspectRatio="xMidYMid meet">
<metadata>
Created by potrace 1.11, written by Peter Selinger 2001-2013
</metadata>
<g transform="translate(0.000000,597.000000) scale(0.100000,-0.100000)"
fill="#000000" stroke="none">
<path d="M2770 5963 c-264 -25 -424 -55 -625 -113 -798 -234 -1467 -797 -1835
-1545 -175 -355 -267 -686 -301 -1085 -14 -162 -6 -466 16 -629 149 -1087 865
-1993 1893 -2395 474 -185 1039 -241 1562 -155 644 107 1269 446 1702 924 432
477 690 1038 770 1675 17 137 17 553 0 690 -46 366 -147 695 -311 1016 -293
571 -760 1031 -1336 1314 -348 172 -681 265 -1065 300 -106 9 -388 11 -470 3z
m-210 -1713 c126 -36 222 -93 330 -196 l95 -92 91 87 c172 164 334 231 559
231 419 0 746 -309 771 -730 10 -168 -48 -364 -149 -504 -30 -41 -1263 -1356
-1272 -1356 -9 0 -1242 1315 -1272 1356 -46 64 -107 192 -129 274 -24 88 -25
290 -1 380 23 90 96 233 154 305 113 140 288 238 478 269 70 11 271 -3 345
-24z"/>
</g>
</svg>
